<svg viewBox="0 0 1440 83" xmlns="http://www.w3.org/2000/svg">
<path d="M1440 1.85693V83.0764H0V9.68658C10.0055 3.68701 21.6984 0.240601 34.1912 0.240601C55.5179 0.240601 74.5136 10.2844 86.7624 25.928C97.7301 18.0135 111.174 13.3542 125.7 13.3542C133.39 13.3542 140.776 14.6599 147.652 17.063C158.789 8.72699 172.59 3.79425 187.536 3.79425C210.139 3.79425 230.124 15.0763 242.233 32.3499C244.964 31.864 247.785 31.6096 250.67 31.6096C265.031 31.6096 277.802 37.9158 285.929 47.7007C294.584 37.6671 305.812 31.6096 318.082 31.6096C328.471 31.6096 338.112 35.9516 346.078 43.3726C354.282 35.9865 364.482 31.6096 375.535 31.6096C389 31.6096 401.199 38.1055 410.067 48.6244H410.097C435.181 48.6244 457.04 62.5185 468.489 83.0764C476.539 68.6224 489.735 57.4625 505.579 52.1097C515.15 26.7102 539.553 8.65521 568.147 8.65521C583.075 8.65521 596.861 13.5762 607.991 21.8942C613.216 20.5751 618.686 19.8746 624.318 19.8746C633.382 19.8746 642.025 21.6888 649.908 24.9761C658.912 22.2133 668.646 20.491 678.837 20.0118C689.472 12.839 702.265 8.65521 716.03 8.65521C731.971 8.65521 746.61 14.2671 758.103 23.6348C769.595 14.2671 784.234 8.65521 800.175 8.65521C824.092 8.65521 845.076 21.2861 856.902 40.2809C860.217 39.7724 863.612 39.5087 867.067 39.5087C890.788 39.5087 911.626 51.9341 923.503 70.6701C932.24 41.4798 963.594 19.8746 1000.93 19.8746C1021.44 19.8746 1040.14 26.3908 1054.28 37.101C1062.41 33.5676 1071.37 31.6096 1080.79 31.6096C1106.4 31.6096 1128.65 46.0923 1139.89 67.3632C1149.41 62.1221 1160.33 59.1426 1171.95 59.1426C1179.37 59.1426 1186.51 60.3587 1193.18 62.6035C1205.07 43.961 1225.86 31.6096 1249.51 31.6096C1263.19 31.6096 1275.92 35.7473 1286.52 42.8475C1297.12 35.7473 1309.85 31.6096 1323.54 31.6096H1323.59C1335.85 17.5389 1353.84 8.65521 1373.9 8.65521C1379.36 8.65521 1384.67 9.31458 1389.76 10.5586C1400.07 4.02216 1412.28 0.240601 1425.36 0.240601C1430.39 0.240601 1435.29 0.798767 1440 1.85693Z" fill="white"/>
</svg>
