<svg viewBox="0 0 861 1548" fill="none" xmlns="http://www.w3.org/2000/svg">
  <path
    d="M86.8372 0.643311C47.0727 0.643311 14.8372 32.8789 14.8372 72.6434V287.803H10.6335C5.1107 287.803 0.633545 292.28 0.633545 297.803V444.774C0.633545 450.297 5.1107 454.774 10.6335 454.774H14.8372V484.736H10.6335C5.1107 484.736 0.633545 489.213 0.633545 494.736V641.707C0.633545 647.23 5.1107 651.707 10.6335 651.707H14.8372V1475.47C14.8372 1515.23 47.0726 1547.47 86.8371 1547.47H774.641C814.406 1547.47 846.641 1515.23 846.641 1475.47V484.736H850.845C856.368 484.736 860.845 480.259 860.845 474.736V297.803C860.845 292.28 856.368 287.803 850.845 287.803H846.641V72.6433C846.641 32.8788 814.406 0.643311 774.641 0.643311H86.8372Z"
    fill="#2F2B31" />
  <rect x="44.5804" y="29.8435" width="772.318" height="1488.42" rx="50" fill="#F1E1F8" />
  <path
    d="M816.898 1468.27C816.898 1495.88 794.512 1518.27 766.898 1518.27L94.5805 1518.27C66.9662 1518.27 44.5804 1495.88 44.5804 1468.27L44.5805 1416.94L816.898 1416.94L816.898 1468.27Z"
    fill="#9114C4" />
  <circle cx="428.199" cy="1467.6" r="27.6169" fill="white" />
  <rect x="612.755" y="1439.99" width="55.2337" height="55.2337" rx="12" fill="white" />
  <path
    d="M192.525 1474.73C187.036 1471.57 187.036 1463.64 192.525 1460.47L226.075 1441.1C231.565 1437.93 238.427 1441.89 238.427 1448.23V1486.97C238.427 1493.31 231.565 1497.27 226.075 1494.11L192.525 1474.73Z"
    fill="white" />
  <rect x="74.7822" y="1313.55" width="585.742" height="68.933" rx="34.4665" fill="white" />
  <ellipse cx="733.76" cy="1331.46" rx="52.9362" ry="51.0286" fill="#9114C4" />
  <path
    d="M305.104 660.915C299.581 660.915 295.104 665.392 295.104 670.915V730.305C295.104 735.827 299.581 740.305 305.104 740.305H750.845C756.368 740.305 760.845 735.827 760.845 730.305V718.344L785.342 675.915C789.191 669.248 784.379 660.915 776.681 660.915H305.104Z"
    fill="#F0CAFF" />
  <path
    d="M76.1369 562.067C72.2879 555.4 77.0992 547.067 84.7972 547.067H556.374C561.897 547.067 566.374 551.544 566.374 557.067V616.457C566.374 621.979 561.897 626.457 556.374 626.457H110.633C105.111 626.457 100.633 621.979 100.633 616.457V604.496L76.1369 562.067Z"
    fill="white" />
  <path
    d="M305.104 433.219C299.581 433.219 295.104 437.696 295.104 443.219V502.609C295.104 508.132 299.581 512.609 305.104 512.609H750.845C756.368 512.609 760.845 508.132 760.845 502.609V490.648L785.342 448.219C789.191 441.552 784.379 433.219 776.681 433.219H305.104Z"
    fill="#F0CAFF" />
  <path
    d="M606.74 254.923H100.633V388.761C100.633 394.284 105.111 398.761 110.633 398.761H596.74C602.262 398.761 606.74 394.284 606.74 388.761V254.923Z"
    fill="white" />
  <rect x="179.175" y="245.443" width="348.913" height="27.6299" rx="13.8149" fill="#F0CAFF" />
  <rect x="179.175" y="305.278" width="284.059" height="27.6299" rx="13.8149" fill="#F0CAFF" />
  <rect x="476.697" y="354.884" width="104.922" height="27.6299" rx="13.8149" fill="#F0CAFF" />
  <circle cx="144.778" cy="259.258" r="19.0236" fill="#9114C4" />
  <circle cx="144.778" cy="319.093" r="19.0236" fill="#9114C4" />
  <path
    d="M76.1369 788.888L100.633 831.354V1270.42C100.633 1275.95 105.111 1280.43 110.633 1280.43H596.74C602.263 1280.43 606.74 1275.95 606.74 1270.42V783.883C606.74 778.356 602.263 773.875 596.74 773.875H84.7972C77.0992 773.875 72.2879 782.215 76.1369 788.888Z"
    fill="white" />
  <rect x="130.719" y="795.087" width="256.34" height="27.6299" rx="13.8149" fill="#9114C4" />
  <rect x="130.719" y="835.435" width="427.645" height="27.6299" rx="13.8149" fill="#F0CAFF" />
  <rect x="130.719" y="875.783" width="285.812" height="27.6299" rx="13.8149" fill="#F0CAFF" />
  <rect x="184.14" y="947.354" width="402.444" height="27.6299" rx="13.8149" fill="#F0CAFF" />
  <rect x="184.14" y="1007.19" width="303.619" height="27.6299" rx="13.8149" fill="#F0CAFF" />
  <rect x="184.14" y="1067.02" width="389.015" height="27.6299" rx="13.8149" fill="#F0CAFF" />
  <rect x="184.14" y="1126.86" width="348.913" height="27.6299" rx="13.8149" fill="#F0CAFF" />
  <rect x="184.14" y="1186.69" width="284.059" height="27.6299" rx="13.8149" fill="#F0CAFF" />
  <rect x="481.661" y="1236.3" width="104.922" height="27.6299" rx="13.8149" fill="#F0CAFF" />
  <circle cx="149.742" cy="961.169" r="19.0236" fill="#9114C4" />
  <circle cx="149.742" cy="1021" r="19.0236" fill="#9114C4" />
  <circle cx="149.742" cy="1080.84" r="19.0236" fill="#9114C4" />
  <circle cx="149.742" cy="1140.67" r="19.0236" fill="#9114C4" />
  <circle cx="149.742" cy="1200.51" r="19.0236" fill="#9114C4" />
  <path
    d="M44.5804 79.8435C44.5804 52.2293 66.9662 29.8435 94.5804 29.8435H766.898C794.512 29.8435 816.898 52.2293 816.898 79.8435V254.923H44.5804V79.8435Z"
    fill="#9114C4" />
  <path fill-rule="evenodd" clip-rule="evenodd"
    d="M150.361 114.17C121.723 114.17 98.5071 137.386 98.5071 166.024C98.5071 194.662 121.723 217.878 150.361 217.878C178.999 217.878 202.215 194.662 202.215 166.024C202.215 137.386 178.999 114.17 150.361 114.17ZM150.361 123.618C149.081 123.618 148.132 124.27 147.473 125.278C146.846 126.238 146.454 127.551 146.175 129.038C145.737 131.376 145.536 134.427 145.315 137.798L145.314 137.802C145.254 138.721 145.192 139.664 145.123 140.622C144.471 149.709 143.194 160.462 137.209 168.063L137.207 168.066C136.06 169.535 134.364 170.674 132.386 171.613C130.41 172.552 128.222 173.26 126.135 173.908L125.921 173.974L125.509 174.101L125.508 174.102C123.68 174.666 121.927 175.208 120.6 175.832C119.858 176.181 119.178 176.587 118.675 177.091C118.155 177.611 117.793 178.269 117.793 179.071C117.793 179.917 118.035 180.645 118.506 181.254C118.963 181.845 119.593 182.268 120.282 182.597C121.464 183.162 123.042 183.543 124.711 183.947L124.733 183.952C124.954 184.006 125.176 184.06 125.4 184.114C129.338 185.079 134.044 186.416 137.814 190.51C142.608 196.015 144.6 200.325 145.858 203.275C145.95 203.49 146.04 203.702 146.127 203.909L146.128 203.912C146.624 205.088 147.058 206.117 147.556 206.855C147.865 207.312 148.234 207.718 148.714 208.004C149.204 208.297 149.749 208.429 150.352 208.429H150.37C150.973 208.429 151.518 208.296 152.008 208.004C152.488 207.717 152.857 207.31 153.166 206.853C153.663 206.115 154.097 205.086 154.593 203.911C154.681 203.702 154.771 203.489 154.863 203.271C156.122 200.32 158.114 196.01 162.907 190.511C166.682 186.412 171.389 185.075 175.325 184.111C175.557 184.054 175.788 183.998 176.018 183.943C177.685 183.54 179.26 183.159 180.44 182.596C181.129 182.267 181.759 181.844 182.216 181.254C182.687 180.645 182.929 179.917 182.929 179.071C182.929 178.269 182.567 177.611 182.047 177.091C181.543 176.587 180.864 176.181 180.121 175.832C178.795 175.208 177.042 174.667 175.214 174.102L175.214 174.102L175.213 174.101C175.005 174.037 174.796 173.973 174.586 173.908C172.499 173.26 170.311 172.552 168.336 171.613C166.358 170.674 164.662 169.535 163.514 168.066L163.512 168.063C157.528 160.458 156.252 149.705 155.602 140.619C155.533 139.662 155.471 138.721 155.411 137.803L155.411 137.803C155.19 134.429 154.989 131.376 154.55 129.037C154.272 127.55 153.878 126.237 153.25 125.277C152.59 124.269 151.641 123.618 150.361 123.618Z"
    fill="white" />
  <rect x="221.232" y="124.731" width="462" height="35.3044" rx="17.6522" fill="white" />
  <rect x="74.7822" y="49.7163" width="77.366" height="25.965" rx="12.9825" fill="white" />
  <rect x="732.21" y="49.7163" width="54.486" height="25.965" rx="12.9825" fill="white" />
  <rect x="655.99" y="49.7163" width="54.486" height="25.965" rx="12.9825" fill="white" />
  <rect x="607.758" y="49.7163" width="26.4968" height="25.965" rx="12.9825" fill="white" />
  <rect x="221.232" y="172.754" width="206.966" height="35.3044" rx="17.6522" fill="#F0CAFF" />
  <rect x="264.805" y="9.97046" width="331.868" height="39.7458" rx="18" fill="#2F2B31" />
</svg>