<svg viewBox="-4 -4 509 509" fill="none" xmlns="http://www.w3.org/2000/svg">
  <linearGradient id="svg-gradient" x2="1" y2="1" aria-hidden="true" focusable="false">
    <stop class="gradient-start" offset="0%" />
    <stop class="gradient-end" offset="100%" />
  </linearGradient>
  <path class="fill" fill="red" fill-rule="evenodd" clip-rule="evenodd"
    shape-rendering="geometricPrecision"
    d="M250.5 497.51C114.28 497.51 3.47998 386.7 3.47998 250.5C3.47998 168.97 43.18 96.53 104.26 51.53C87.83 65.68 75.17 80.86 65.96 93.81C44.53 123.98 29.48 159.2 24.68 190.48L24.08 194.36C18.23 232.15 12.2 271.21 45.96 291.61C55.99 297.66 65.09 302.34 73.9 306.85L73.9204 306.861C101.04 320.775 120.654 330.839 136.48 365.87C139.013 371.449 141.284 379.458 143.915 388.736L144.03 389.14C151.39 415.17 161.48 450.8 187.12 468.68C200.13 477.76 227.81 485.19 261.16 488.56C272.8 489.73 284.04 490.31 294.31 490.31C300.82 490.31 306.94 490.08 312.54 489.62C292.71 494.77 271.92 497.51 250.5 497.51ZM93.49 328.24C92.0706 328.24 91.0186 328.962 90.2876 330.081C89.5922 331.145 89.1566 332.602 88.8476 334.251C88.3617 336.844 88.1394 340.227 87.8936 343.966C87.8265 344.987 87.7577 346.034 87.6813 347.098C86.9583 357.176 85.5411 369.102 78.9043 377.531L78.9018 377.535C77.6291 379.164 75.7484 380.428 73.5546 381.469C71.3637 382.51 68.937 383.295 66.6222 384.014C66.3901 384.086 66.1584 384.157 65.9278 384.229L65.9267 384.229C63.8992 384.855 61.9552 385.456 60.4839 386.148C59.6606 386.535 58.9066 386.986 58.348 387.544C57.7714 388.121 57.37 388.851 57.37 389.74C57.37 390.678 57.639 391.486 58.1613 392.161C58.6682 392.816 59.3667 393.286 60.1313 393.651C61.4415 394.277 63.1916 394.7 65.0425 395.148L65.0667 395.154C65.312 395.213 65.559 395.273 65.807 395.334C70.174 396.404 75.3939 397.886 79.5749 402.427C84.8917 408.532 87.1006 413.312 88.4965 416.584C88.5989 416.824 88.6984 417.06 88.7958 417.291C89.3458 418.594 89.8272 419.735 90.3796 420.554C90.7215 421.061 91.1308 421.511 91.6634 421.829C92.2067 422.153 92.8118 422.3 93.48 422.3H93.5C94.1684 422.3 94.7737 422.153 95.317 421.828C95.8496 421.51 96.2588 421.059 96.6006 420.552C97.1526 419.734 97.6336 418.593 98.1833 417.289C98.2809 417.058 98.3808 416.821 98.4836 416.58C99.8794 413.307 102.088 408.527 107.405 402.427C111.591 397.881 116.811 396.399 121.177 395.33C121.434 395.267 121.69 395.205 121.945 395.144C123.793 394.697 125.541 394.274 126.85 393.65C127.614 393.285 128.312 392.816 128.819 392.161C129.341 391.486 129.61 390.678 129.61 389.74C129.61 388.851 129.209 388.121 128.632 387.544C128.073 386.986 127.319 386.535 126.496 386.148C125.025 385.456 123.081 384.855 121.053 384.229L121.052 384.229C120.822 384.157 120.59 384.086 120.358 384.014C118.043 383.295 115.616 382.51 113.425 381.469C111.232 380.428 109.351 379.164 108.078 377.535L108.076 377.532C101.439 369.097 100.024 357.171 99.3024 347.095C99.2264 346.033 99.1578 344.989 99.091 343.971C98.8454 340.229 98.6232 336.844 98.1366 334.25C97.8272 332.6 97.3912 331.144 96.6949 330.08C95.9629 328.961 94.9099 328.24 93.49 328.24Z" />
  <path class="outer-border" shape-rendering="geometricPrecision"
    d="M496.88 207.79C496.85 207.54 496.8 207.3 496.75 207.05C494.17 192.58 490.29 178.25 485.12 164.18C479.01 147.57 471.29 131.87 462.11 117.23C462.07 117.15 462.02 117.07 461.97 117C461.35 116.03 460.74 115.07 460.11 114.1C459.52 113.2 458.93 112.31 458.33 111.41C457.72 110.52 457.12 109.63 456.5 108.75C456.09 108.15 455.69 107.56 455.27 106.98C453.8 104.88 452.29 102.8 450.74 100.75C450.34 100.21 449.92 99.66 449.5 99.12C449.15 98.65 448.78 98.16 448.4 97.68C447.13 96.03 445.83 94.4 444.5 92.79C444.06 92.25 443.61 91.7 443.15 91.15C442.19 89.97 441.19 88.81 440.2 87.65C439.63 87 439.07 86.35 438.5 85.71C437.78 84.88 437.06 84.06 436.32 83.26C435.6 82.44 434.85 81.64 434.12 80.83C431.88 78.42 429.6 76.05 427.27 73.72C425.26 71.71 423.23 69.74 421.16 67.81C420.58 67.26 419.98 66.71 419.38 66.16C418.71 65.55 418.04 64.94 417.37 64.33C416.63 63.67 415.88 63.01 415.14 62.36C414.56 61.85 413.98 61.34 413.39 60.83C412.67 60.22 411.95 59.6 411.23 59C410.55 58.41 409.85 57.83 409.16 57.27C407.76 56.11 406.36 54.99 404.94 53.88C403.62 52.82 402.28 51.78 400.92 50.77C399.41 49.62 397.89 48.5 396.35 47.38C395.63 46.86 394.9 46.34 394.16 45.82C393.67 45.48 393.17 45.13 392.67 44.78C391.94 44.27 391.21 43.78 390.48 43.28C389.73 42.78 389 42.3 388.25 41.81C387.51 41.31 386.76 40.83 386.01 40.36C385.27 39.88 384.51 39.4 383.76 38.93C381.07 37.24 378.35 35.61 375.59 34.02C374.86 33.6 374.14 33.18 373.4 32.77C372.66 32.36 371.94 31.95 371.19 31.55C370.46 31.14 369.72 30.74 368.98 30.35C368.26 29.96 367.54 29.58 366.83 29.2C364.56 28.01 362.28 26.86 359.96 25.73C358.44 25 356.91 24.27 355.37 23.56C338.89 15.94 321.87 10.19 304.56 6.33C303.93 6.18 303.28 6.04 302.64 5.91C285.69 2.34 268.23 0.5 250.5 0.5C235.29 0.5 220.29 1.85 205.63 4.49C155.92 13.44 110.18 37.26 73.72 73.72C26.5 120.93 0.5 183.72 0.5 250.5C0.5 317.28 26.5 380.05 73.72 427.27C120.93 474.49 183.72 500.5 250.5 500.5C298.4 500.5 344.24 487.12 383.76 462.11C383.84 462.07 383.92 462.02 383.99 461.97C384.95 461.35 385.91 460.73 386.88 460.11C389.58 458.34 392.25 456.52 394.89 454.64C395.68 454.08 396.45 453.53 397.23 452.96C399.5 451.3 401.76 449.6 403.99 447.85C404.67 447.33 405.35 446.79 406.02 446.25C406.75 445.68 407.48 445.1 408.19 444.5C408.74 444.05 409.28 443.61 409.83 443.15C411.01 442.19 412.18 441.2 413.33 440.2C413.99 439.63 414.63 439.07 415.28 438.5C416.1 437.78 416.92 437.06 417.72 436.32C418.54 435.6 419.34 434.86 420.15 434.11C422.56 431.89 424.93 429.6 427.27 427.27C427.91 426.62 428.56 425.96 429.2 425.32C429.83 424.67 430.47 424.02 431.09 423.36C433.68 420.67 436.19 417.92 438.63 415.14C439.18 414.53 439.71 413.92 440.24 413.29C440.84 412.6 441.42 411.92 442 411.23C442.57 410.54 443.16 409.85 443.73 409.15C445.62 406.87 447.46 404.55 449.25 402.21C449.63 401.71 450.01 401.21 450.39 400.7C450.78 400.19 451.16 399.67 451.55 399.15C451.88 398.7 452.22 398.24 452.55 397.78C452.9 397.31 453.25 396.83 453.6 396.35C454.13 395.63 454.64 394.9 455.16 394.16C455.45 393.76 455.74 393.35 456.01 392.94C464.14 381.17 471.31 368.62 477.44 355.37C484.67 339.71 490.22 323.57 494.08 307.16C494.26 306.34 494.45 305.52 494.63 304.69C494.79 304.02 494.94 303.33 495.08 302.64C498.66 285.69 500.5 268.23 500.5 250.5C500.5 236.03 499.27 221.76 496.88 207.79ZM250.5 497.51C114.28 497.51 3.48 386.7 3.48 250.5C3.48 168.97 43.18 96.53 104.26 51.53C87.83 65.68 75.17 80.86 65.96 93.81C44.53 123.98 29.48 159.2 24.68 190.48L24.08 194.36C18.23 232.15 12.2 271.21 45.96 291.61C55.99 297.66 65.09 302.34 73.9 306.85C101.03 320.77 120.65 330.83 136.48 365.87C139.05 371.53 141.35 379.69 144.03 389.14C151.39 415.17 161.48 450.8 187.12 468.68C200.13 477.76 227.81 485.19 261.16 488.56C272.8 489.73 284.04 490.31 294.31 490.31C300.82 490.31 306.94 490.08 312.54 489.62C292.71 494.77 271.92 497.51 250.5 497.51ZM497.35 262.76C497.26 264.38 497.16 265.99 497.05 267.61C497 268.34 496.95 269.05 496.89 269.78C496.87 270.07 496.84 270.35 496.82 270.64C496.75 271.47 496.68 272.3 496.6 273.13C496.55 273.71 496.49 274.28 496.43 274.87C496.36 275.65 496.27 276.43 496.19 277.22C496.18 277.25 496.18 277.29 496.17 277.34C496.09 278.06 496.01 278.78 495.92 279.5C495.88 279.96 495.82 280.41 495.76 280.86C495.58 282.31 495.39 283.75 495.18 285.19C495.14 285.47 495.1 285.73 495.06 286.01C494.96 286.69 494.86 287.37 494.75 288.05C494.54 289.41 494.31 290.77 494.09 292.15C493.97 292.8 493.85 293.47 493.73 294.12C493.65 294.57 493.57 295.02 493.48 295.48C493.36 296.1 493.24 296.74 493.12 297.37C491.62 305.06 489.74 312.7 487.5 320.27C487.27 321.04 487.03 321.83 486.78 322.6C486.6 323.21 486.41 323.83 486.21 324.43C485.91 325.4 485.61 326.35 485.29 327.31C485.04 328.08 484.78 328.87 484.51 329.64C482.88 334.45 481.1 339.19 479.19 343.88C478.94 344.48 478.69 345.08 478.44 345.69C478.2 346.26 477.95 346.83 477.7 347.4C477.41 348.1 477.11 348.81 476.79 349.5C476.42 350.36 476.04 351.21 475.66 352.06C475.35 352.74 475.04 353.43 474.72 354.11C474.61 354.34 474.51 354.57 474.4 354.79C473.99 355.7 473.56 356.6 473.12 357.49C446.88 412.18 402.38 454.53 346.74 477.99C345.96 478.32 345.18 478.65 344.39 478.97C343.45 479.36 342.49 479.75 341.54 480.12C339.63 480.87 337.71 481.6 335.78 482.32C306.4 493.12 216.6 485.61 188.82 466.23C164.07 448.97 154.15 413.93 146.9 388.34C144.18 378.77 141.85 370.51 139.19 364.64C122.93 328.66 101.9 317.86 75.26 304.19C66.5 299.7 57.45 295.06 47.51 289.05C15.45 269.69 21.07 233.32 27.03 194.82L27.62 190.92C35.47 139.9 77.88 52.27 162.65 19.61L163.61 19.25C164.15 19.05 164.67 18.86 165.21 18.67C166.49 18.18 167.78 17.72 169.08 17.27C170.39 16.81 171.72 16.36 173.05 15.92C175.67 15.05 178.3 14.22 180.95 13.45C182.7 12.93 184.47 12.43 186.24 11.96C186.59 11.86 186.95 11.77 187.3 11.68C208.15 6.11 229.41 3.34 250.63 3.34C278.2 3.34 305.72 8.02 332.17 17.35C332.28 17.39 332.39 17.42 332.49 17.46C334.39 18.13 336.28 18.83 338.17 19.55C339.11 19.91 340.05 20.27 340.97 20.64C341.57 20.87 342.17 21.11 342.76 21.35C343.33 21.58 343.9 21.82 344.46 22.05C345.16 22.34 345.85 22.62 346.55 22.92C347.5 23.32 348.45 23.73 349.39 24.14C350.31 24.53 351.22 24.94 352.14 25.37C352.8 25.66 353.46 25.95 354.12 26.26C357.77 27.95 361.38 29.72 364.93 31.58C365.72 31.99 366.5 32.4 367.29 32.82C368.83 33.64 370.35 34.47 371.86 35.33C378.64 39.13 385.2 43.24 391.53 47.62C392.22 48.09 392.9 48.57 393.58 49.05C394.07 49.4 394.55 49.74 395.04 50.09C395.63 50.52 396.21 50.93 396.8 51.37C398.12 52.34 399.43 53.32 400.74 54.31C401.38 54.8 402.03 55.3 402.66 55.79C403.98 56.82 405.28 57.85 406.57 58.9C407.12 59.34 407.66 59.79 408.21 60.25C409.81 61.57 411.4 62.91 412.96 64.28C413.57 64.8 414.18 65.33 414.77 65.86C415.45 66.46 416.12 67.07 416.79 67.67C419.43 70.07 422.02 72.52 424.54 75.03C425.11 75.59 425.67 76.14 426.22 76.71C426.81 77.3 427.4 77.89 427.97 78.49C429.38 79.95 430.79 81.43 432.16 82.92C432.69 83.5 433.23 84.08 433.76 84.67C437.06 88.32 440.25 92.07 443.32 95.91C443.85 96.57 444.37 97.23 444.89 97.89C445.48 98.64 446.05 99.38 446.62 100.13C447.6 101.41 448.57 102.7 449.52 104.01C450.01 104.66 450.49 105.32 450.96 105.98C451.3 106.45 451.63 106.92 451.96 107.38C452.41 108.01 452.85 108.65 453.29 109.28C458.68 117.05 463.63 125.14 468.12 133.54C468.57 134.38 469.02 135.23 469.45 136.07C471.25 139.52 472.96 143.01 474.59 146.56C474.76 146.94 474.94 147.31 475.1 147.67C475.72 148.99 476.3 150.31 476.88 151.63C477.26 152.51 477.63 153.4 478.01 154.28C478.41 155.22 478.8 156.16 479.19 157.11C479.5 157.89 479.82 158.67 480.12 159.44C480.51 160.4 480.88 161.35 481.24 162.32C481.5 162.97 481.75 163.64 481.99 164.3C482.12 164.61 482.24 164.93 482.35 165.25C483.62 168.68 484.81 172.15 485.91 175.66C485.93 175.7 485.95 175.73 485.95 175.77C486.23 176.63 486.51 177.49 486.76 178.36C487.03 179.22 487.29 180.09 487.53 180.95C487.76 181.7 487.98 182.44 488.19 183.19C488.23 183.33 488.27 183.46 488.3 183.59C488.55 184.47 488.8 185.36 489.04 186.24C489.54 188.08 490.01 189.94 490.47 191.8C490.72 192.78 490.95 193.78 491.18 194.77C491.45 195.92 491.71 197.08 491.97 198.23C492.47 200.55 492.94 202.86 493.38 205.18C493.82 207.49 494.22 209.81 494.59 212.14C494.77 213.3 494.95 214.46 495.12 215.63C495.8 220.28 496.33 224.94 496.74 229.61C496.94 231.95 497.11 234.28 497.24 236.62C497.65 243.79 497.74 250.97 497.52 258.14C497.48 259.68 497.42 261.22 497.35 262.76Z"
    fill="black" stroke="black" stroke-width="5" />
  <path class="inner-border" shape-rendering="geometricPrecision"
    d="M93.5001 421.3C97.6201 421.3 95.8301 414.18 106.66 401.76C115.47 392.18 128.61 395.61 128.61 389.74C128.61 385.26 112.92 385.36 107.29 378.15C93.5901 360.74 101.63 329.24 93.4901 329.24C85.3601 329.24 93.3901 360.75 79.6901 378.15C74.0601 385.36 58.3701 385.26 58.3701 389.74C58.3701 395.61 71.5201 392.19 80.3201 401.76C91.1501 414.19 89.3601 421.3 93.4801 421.3H93.5001Z"
    stroke="white" fill="white" stroke-width="2" stroke-miterlimit="10" />
</svg>