<svg width="24" height="25" viewBox="0 0 24 25" fill="none" xmlns="http://www.w3.org/2000/svg">
<path d="M1.25 15.0771L1.25 9.07715C1.25 3.64715 3.57 1.32715 9 1.32715L15 1.32715C20.43 1.32715 22.75 3.64715 22.75 9.07715L22.75 15.0771C22.75 20.5071 20.43 22.8271 15 22.8271L9 22.8271C3.57 22.8271 1.25 20.5071 1.25 15.0771ZM21.25 9.07715C21.25 4.46715 19.61 2.82715 15 2.82715L9 2.82715C4.39 2.82715 2.75 4.46715 2.75 9.07715L2.75 15.0771C2.75 19.6871 4.39 21.3271 9 21.3271L15 21.3271C19.61 21.3271 21.25 19.6871 21.25 15.0771L21.25 9.07715Z" fill="#292D32"/>
<path d="M9.08993 12.0773C9.08993 11.8873 9.15993 11.6973 9.30993 11.5473L12.8399 8.0173C13.1299 7.7273 13.6099 7.7273 13.8999 8.0173C14.1899 8.3073 14.1899 8.7873 13.8999 9.0773L10.8999 12.0773L13.8999 15.0773C14.1899 15.3673 14.1899 15.8473 13.8999 16.1373C13.6099 16.4273 13.1299 16.4273 12.8399 16.1373L9.30993 12.6073C9.15993 12.4573 9.08993 12.2673 9.08993 12.0773Z" fill="#292D32"/>
</svg>
