<svg width="24" height="25" viewBox="0 0 24 25" fill="none" xmlns="http://www.w3.org/2000/svg">
<path d="M22.75 9.07715V15.0771C22.75 20.5071 20.43 22.8271 15 22.8271H9C3.57 22.8271 1.25 20.5071 1.25 15.0771L1.25 9.07715C1.25 3.64715 3.57 1.32715 9 1.32715H15C20.43 1.32715 22.75 3.64715 22.75 9.07715ZM2.75 15.0771C2.75 19.6871 4.39 21.3271 9 21.3271H15C19.61 21.3271 21.25 19.6871 21.25 15.0771V9.07715C21.25 4.46715 19.61 2.82715 15 2.82715H9C4.39 2.82715 2.75 4.46715 2.75 9.07715L2.75 15.0771Z" fill="#292D32"/>
<path d="M14.9101 12.077C14.9101 12.267 14.8401 12.457 14.6901 12.607L11.1601 16.137C10.8701 16.427 10.3901 16.427 10.1001 16.137C9.81007 15.847 9.81007 15.367 10.1001 15.077L13.1001 12.077L10.1001 9.07699C9.81007 8.78699 9.81007 8.30699 10.1001 8.01699C10.3901 7.72699 10.8701 7.72699 11.1601 8.01699L14.6901 11.547C14.8401 11.697 14.9101 11.887 14.9101 12.077Z" fill="#292D32"/>
</svg>
