<svg width="25" height="24" viewBox="0 0 25 24" fill="currentColor" xmlns="http://www.w3.org/2000/svg">
  <path d="M7.74 2H5.84C3.65 2 2.5 3.15 2.5 5.33V7.23C2.5 9.41 3.65 10.56 5.83 10.56H7.73C9.91 10.56 11.06 9.41 11.06 7.23V5.33C11.07 3.15 9.92 2 7.74 2Z" />
  <path d="M19.1699 2H17.2699C15.0899 2 13.9399 3.15 13.9399 5.33V7.23C13.9399 9.41 15.0899 10.56 17.2699 10.56H19.1699C21.3499 10.56 22.4999 9.41 22.4999 7.23V5.33C22.4999 3.15 21.3499 2 19.1699 2Z" />
  <path d="M19.1699 13.4297H17.2699C15.0899 13.4297 13.9399 14.5797 13.9399 16.7597V18.6597C13.9399 20.8397 15.0899 21.9897 17.2699 21.9897H19.1699C21.3499 21.9897 22.4999 20.8397 22.4999 18.6597V16.7597C22.4999 14.5797 21.3499 13.4297 19.1699 13.4297Z" />
  <path d="M7.74 13.4297H5.84C3.65 13.4297 2.5 14.5797 2.5 16.7597V18.6597C2.5 20.8497 3.65 21.9997 5.83 21.9997H7.73C9.91 21.9997 11.06 20.8497 11.06 18.6697V16.7697C11.07 14.5797 9.92 13.4297 7.74 13.4297Z" />
</svg>
