<svg width="22" height="23" viewBox="0 0 22 23" fill="none" xmlns="http://www.w3.org/2000/svg">
<path d="M10.9999 2.03369C5.94908 2.03369 1.83325 6.14952 1.83325 11.2004C1.83325 16.2512 5.94908 20.367 10.9999 20.367C16.0508 20.367 20.1666 16.2512 20.1666 11.2004C20.1666 6.14952 16.0508 2.03369 10.9999 2.03369ZM14.0799 13.3087C14.3458 13.5745 14.3458 14.0145 14.0799 14.2804C13.9424 14.4179 13.7683 14.482 13.5941 14.482C13.4199 14.482 13.2458 14.4179 13.1083 14.2804L10.9999 12.172L8.89158 14.2804C8.75408 14.4179 8.57992 14.482 8.40575 14.482C8.23159 14.482 8.05742 14.4179 7.91992 14.2804C7.65409 14.0145 7.65409 13.5745 7.91992 13.3087L10.0283 11.2004L7.91992 9.09202C7.65409 8.82619 7.65409 8.38619 7.91992 8.12036C8.18575 7.85452 8.62575 7.85452 8.89158 8.12036L10.9999 10.2287L13.1083 8.12036C13.3741 7.85452 13.8141 7.85452 14.0799 8.12036C14.3458 8.38619 14.3458 8.82619 14.0799 9.09202L11.9716 11.2004L14.0799 13.3087Z" fill="#EB4335"/>
</svg>
