<svg width="24" height="25" viewBox="0 0 24 25" fill="none" xmlns="http://www.w3.org/2000/svg">
<path d="M21.76 16.3819L15.36 4.86191C14.5 3.31191 13.31 2.46191 12 2.46191C10.69 2.46191 9.49998 3.31191 8.63998 4.86191L2.23998 16.3819C1.42998 17.8519 1.33998 19.2619 1.98998 20.3719C2.63998 21.4819 3.91998 22.0919 5.59998 22.0919H18.4C20.08 22.0919 21.36 21.4819 22.01 20.3719C22.66 19.2619 22.57 17.8419 21.76 16.3819ZM11.25 9.46191C11.25 9.05191 11.59 8.71191 12 8.71191C12.41 8.71191 12.75 9.05191 12.75 9.46191V14.4619C12.75 14.8719 12.41 15.2119 12 15.2119C11.59 15.2119 11.25 14.8719 11.25 14.4619V9.46191ZM12.71 18.1719C12.66 18.2119 12.61 18.2519 12.56 18.2919C12.5 18.3319 12.44 18.3619 12.38 18.3819C12.32 18.4119 12.26 18.4319 12.19 18.4419C12.13 18.4519 12.06 18.4619 12 18.4619C11.94 18.4619 11.87 18.4519 11.8 18.4419C11.74 18.4319 11.68 18.4119 11.62 18.3819C11.56 18.3619 11.5 18.3319 11.44 18.2919C11.39 18.2519 11.34 18.2119 11.29 18.1719C11.11 17.9819 11 17.7219 11 17.4619C11 17.2019 11.11 16.9419 11.29 16.7519C11.34 16.7119 11.39 16.6719 11.44 16.6319C11.5 16.5919 11.56 16.5619 11.62 16.5419C11.68 16.5119 11.74 16.4919 11.8 16.4819C11.93 16.4519 12.07 16.4519 12.19 16.4819C12.26 16.4919 12.32 16.5119 12.38 16.5419C12.44 16.5619 12.5 16.5919 12.56 16.6319C12.61 16.6719 12.66 16.7119 12.71 16.7519C12.89 16.9419 13 17.2019 13 17.4619C13 17.7219 12.89 17.9819 12.71 18.1719Z" fill="#FF5B35"/>
</svg>
