<svg width="121" height="121" viewBox="0 0 121 121" fill="none" xmlns="http://www.w3.org/2000/svg">
<path fill-rule="evenodd" clip-rule="evenodd" d="M103.279 103.28C79.8474 126.712 41.8573 126.711 18.4256 103.28C-5.00609 79.848 -5.0063 41.8579 18.4252 18.4264C41.8566 -5.00505 79.8467 -5.00485 103.278 18.4269C126.71 41.8586 126.71 79.8487 103.279 103.28ZM23.7302 88.1084L88.1071 23.7314C70.0884 10.4674 44.5971 11.9879 28.2919 28.2931C11.9867 44.5983 10.4661 70.0896 23.7302 88.1084ZM93.4122 93.4134C77.1069 109.719 51.6157 111.239 33.5969 97.9751L97.9739 33.5981C111.238 51.6169 109.717 77.1082 93.4122 93.4134Z" fill="#309F33"/>
</svg>
