<svg width="13" height="12" viewBox="0 0 13 12" fill="none" xmlns="http://www.w3.org/2000/svg">
<path d="M7.53613 0.75C7.53613 0.335156 7.20098 0 6.78613 0C6.37129 0 6.03613 0.335156 6.03613 0.75V6.43828L4.31582 4.71797C4.02285 4.425 3.54707 4.425 3.2541 4.71797C2.96113 5.01094 2.96113 5.48672 3.2541 5.77969L6.2541 8.77969C6.54707 9.07266 7.02285 9.07266 7.31582 8.77969L10.3158 5.77969C10.6088 5.48672 10.6088 5.01094 10.3158 4.71797C10.0229 4.425 9.54707 4.425 9.2541 4.71797L7.53613 6.43828V0.75ZM2.28613 8.25C1.45879 8.25 0.786133 8.92266 0.786133 9.75V10.5C0.786133 11.3273 1.45879 12 2.28613 12H11.2861C12.1135 12 12.7861 11.3273 12.7861 10.5V9.75C12.7861 8.92266 12.1135 8.25 11.2861 8.25H8.90723L7.84551 9.31172C7.25957 9.89766 6.31035 9.89766 5.72441 9.31172L4.66504 8.25H2.28613ZM10.9111 9.5625C11.0603 9.5625 11.2034 9.62176 11.3089 9.72725C11.4144 9.83274 11.4736 9.97582 11.4736 10.125C11.4736 10.2742 11.4144 10.4173 11.3089 10.5227C11.2034 10.6282 11.0603 10.6875 10.9111 10.6875C10.7619 10.6875 10.6189 10.6282 10.5134 10.5227C10.4079 10.4173 10.3486 10.2742 10.3486 10.125C10.3486 9.97582 10.4079 9.83274 10.5134 9.72725C10.6189 9.62176 10.7619 9.5625 10.9111 9.5625Z" fill="#3B71CA"/>
</svg>
