<svg width="30" height="29" viewBox="0 0 30 29" fill="none" xmlns="http://www.w3.org/2000/svg">
<path d="M15.3003 29C19.1459 29 22.8341 27.4723 25.5533 24.753C28.2726 22.0338 29.8003 18.3456 29.8003 14.5C29.8003 10.6544 28.2726 6.96623 25.5533 4.24695C22.8341 1.52767 19.1459 0 15.3003 0C11.4547 0 7.76652 1.52767 5.04725 4.24695C2.32797 6.96623 0.800293 10.6544 0.800293 14.5C0.800293 18.3456 2.32797 22.0338 5.04725 24.753C7.76652 27.4723 11.4547 29 15.3003 29ZM21.7007 11.8379L14.4507 19.0879C13.9183 19.6203 13.0573 19.6203 12.5306 19.0879L8.90557 15.4629C8.37315 14.9305 8.37315 14.0695 8.90557 13.5428C9.43799 13.016 10.2989 13.0104 10.8257 13.5428L13.4878 16.2049L19.7749 9.91211C20.3073 9.37969 21.1683 9.37969 21.695 9.91211C22.2218 10.4445 22.2274 11.3055 21.695 11.8322L21.7007 11.8379Z" fill="#5CCB5F"/>
</svg>
