<svg version="1.1" id="Layer_1" xmlns="http://www.w3.org/2000/svg" xmlns:xlink="http://www.w3.org/1999/xlink" x="0px" y="0px"
	 width="100%" viewBox="0 0 300 168" enable-background="new 0 0 300 168" xml:space="preserve">
<path fill="#FFFFFF" opacity="1.000000" stroke="none" 
	d="
M172.000000,169.000000 
	C114.666672,169.000000 57.833347,169.000000 1.000015,169.000000 
	C1.000010,113.000015 1.000010,57.000027 1.000005,1.000030 
	C100.999977,1.000020 200.999954,1.000020 300.999939,1.000010 
	C300.999969,56.999969 300.999969,112.999939 301.000000,168.999954 
	C258.166656,169.000000 215.333328,169.000000 172.000000,169.000000 
M235.680847,79.132225 
	C238.834259,79.750687 241.987656,80.369148 245.795258,81.199898 
	C258.490295,81.469055 267.887878,75.820274 273.556458,64.670303 
	C278.443207,55.058170 277.855560,45.343784 271.278290,34.342495 
	C268.806976,37.437130 266.860504,39.874508 264.190491,42.162388 
	C260.592377,39.421280 256.994232,36.680172 252.545776,33.291279 
	C249.626099,38.098652 246.607559,42.731178 243.948700,47.561680 
	C242.078354,50.959641 240.697266,54.626900 238.526367,57.829109 
	C235.106339,55.926598 231.686325,54.024090 228.292068,52.135921 
	C219.834900,64.652504 221.881592,73.131401 234.516937,78.704033 
	C234.660858,78.767494 234.843430,78.743256 235.680847,79.132225 
M93.805649,122.016998 
	C95.213821,121.971489 96.621994,121.925972 98.571419,121.868477 
	C98.725494,121.575462 98.879562,121.282448 99.186859,120.063454 
	C99.199104,112.922829 99.132645,105.780739 99.264641,98.642326 
	C99.313385,96.006218 99.520432,93.295380 100.202637,90.766281 
	C101.310188,86.660385 105.534157,84.317673 110.052109,85.074997 
	C115.111053,85.923019 116.738098,89.728279 116.868401,94.142235 
	C117.132843,103.100052 117.058662,112.067863 117.128662,121.530296 
	C117.307274,121.887817 117.588432,122.010666 118.807205,122.041595 
	C120.214577,121.991829 121.621941,121.942070 123.551735,121.880928 
	C123.690018,121.590744 123.828300,121.300560 124.123596,120.082611 
	C124.103470,110.757973 124.243935,101.429161 124.001137,92.110321 
	C123.862305,86.781746 121.510963,82.388710 116.354393,80.216499 
	C110.867455,77.905121 105.542397,78.577522 100.854553,82.292564 
	C99.392662,83.451073 98.447975,85.262222 97.147026,86.927589 
	C90.283707,76.911148 85.189880,76.537170 74.182869,84.694183 
	C74.215469,79.293022 71.175407,79.305084 67.508842,80.273880 
	C67.508842,94.381882 67.508842,108.089432 67.508842,121.743790 
	C70.021927,121.743790 72.111206,121.743790 74.684174,121.743790 
	C74.684174,112.314293 74.546021,103.183823 74.788887,94.063492 
	C74.844208,91.985863 75.709778,89.472878 77.090508,87.983673 
	C79.868668,84.987251 84.082970,83.408264 87.421791,85.917549 
	C89.773445,87.684914 91.552658,91.531052 91.766266,94.576752 
	C92.382256,103.360085 92.075676,112.208122 92.131752,121.523209 
	C92.313126,121.872536 92.592422,121.990990 93.805649,122.016998 
M135.873169,80.292336 
	C135.673233,81.246498 135.300964,82.200317 135.298996,83.154884 
	C135.264450,99.984818 135.265808,116.814880 135.300812,133.644821 
	C135.302734,134.574020 135.665100,135.502472 135.852188,136.395508 
	C138.233643,136.395508 140.332855,136.395508 142.960754,136.395508 
	C142.960754,130.562393 142.960754,125.009613 142.960754,118.753517 
	C144.205963,119.432487 144.750320,119.708519 145.274689,120.018318 
	C154.983994,125.754562 165.676865,122.454086 170.191467,112.198296 
	C173.654251,104.331940 173.538742,96.270912 170.380386,88.402649 
	C166.804901,79.495209 157.341370,76.279922 148.838074,80.876114 
	C146.721680,82.020050 144.866058,83.646461 141.871140,85.775978 
	C143.207153,80.030510 140.365829,79.461311 135.873169,80.292336 
M48.836212,85.180756 
	C50.066250,85.681114 51.439178,85.977379 52.499668,86.719887 
	C55.748779,88.994751 57.612076,87.904236 58.768261,84.527588 
	C52.447716,78.563873 43.835274,77.243515 36.137775,81.009605 
	C29.035034,84.484695 24.724592,93.262077 25.437820,102.513512 
	C27.088993,123.931183 45.079380,126.204178 55.693642,119.492950 
	C57.090298,118.609863 58.739799,115.832901 58.292423,114.754066 
	C56.910065,111.420532 54.733902,113.469719 52.707336,114.712715 
	C44.495747,119.749290 36.007267,116.306992 33.930584,106.876183 
	C33.197308,103.546181 32.997414,99.882362 33.538933,96.530052 
	C34.955784,87.758972 38.981056,84.801048 48.836212,85.180756 
M188.590683,111.676842 
	C185.742859,106.649643 185.336807,101.230721 186.481339,95.741608 
	C188.525406,85.938362 196.235703,82.276611 205.294846,86.606636 
	C209.507034,88.619949 209.507034,88.619942 211.408966,84.147408 
	C202.583160,76.647186 189.509903,77.419441 182.970459,85.827309 
	C175.533173,95.389534 177.214157,112.737381 186.218002,119.342125 
	C194.171082,125.176086 206.597275,123.516006 211.919678,115.908508 
	C209.438400,112.439827 209.438400,112.439835 205.947632,114.572502 
	C199.615738,118.440948 194.165756,117.718277 188.590683,111.676842 
z"/>
<path fill="#8B8C8F" opacity="1.000000" stroke="none" 
	d="
M117.124054,121.031555 
	C117.058662,112.067863 117.132843,103.100052 116.868401,94.142235 
	C116.738098,89.728279 115.111053,85.923019 110.052109,85.074997 
	C105.534157,84.317673 101.310188,86.660385 100.202637,90.766281 
	C99.520432,93.295380 99.313385,96.006218 99.264641,98.642326 
	C99.132645,105.780739 99.199104,112.922829 98.896652,120.617760 
	C98.329643,121.339287 98.137558,121.575417 98.030167,121.880455 
	C96.621994,121.925972 95.213821,121.971489 93.299316,121.761147 
	C92.626259,121.272148 92.405746,121.113968 92.131439,121.030746 
	C92.075676,112.208122 92.382256,103.360085 91.766266,94.576752 
	C91.552658,91.531052 89.773445,87.684914 87.421791,85.917549 
	C84.082970,83.408264 79.868668,84.987251 77.090508,87.983673 
	C75.709778,89.472878 74.844208,91.985863 74.788887,94.063492 
	C74.546021,103.183823 74.684174,112.314293 74.684174,121.743790 
	C72.111206,121.743790 70.021927,121.743790 67.508842,121.743790 
	C67.508842,108.089432 67.508842,94.381882 67.508842,80.273880 
	C71.175407,79.305084 74.215469,79.293022 74.182869,84.694183 
	C85.189880,76.537170 90.283707,76.911148 97.147026,86.927589 
	C98.447975,85.262222 99.392662,83.451073 100.854553,82.292564 
	C105.542397,78.577522 110.867455,77.905121 116.354393,80.216499 
	C121.510963,82.388710 123.862305,86.781746 124.001137,92.110321 
	C124.243935,101.429161 124.103470,110.757973 123.842064,120.638260 
	C123.301956,121.364708 123.124886,121.597504 123.029312,121.892303 
	C121.621941,121.942070 120.214577,121.991829 118.301178,121.779526 
	C117.627502,121.278084 117.403809,121.116119 117.124054,121.031555 
z"/>
<path fill="#8D8E91" opacity="1.000000" stroke="none" 
	d="
M136.277710,80.118340 
	C140.365829,79.461311 143.207153,80.030510 141.871140,85.775978 
	C144.866058,83.646461 146.721680,82.020050 148.838074,80.876114 
	C157.341370,76.279922 166.804901,79.495209 170.380386,88.402649 
	C173.538742,96.270912 173.654251,104.331940 170.191467,112.198296 
	C165.676865,122.454086 154.983994,125.754562 145.274689,120.018318 
	C144.750320,119.708519 144.205963,119.432487 142.960754,118.753517 
	C142.960754,125.009613 142.960754,130.562393 142.960754,136.395508 
	C140.332855,136.395508 138.233643,136.395508 135.852188,136.395508 
	C135.665100,135.502472 135.302734,134.574020 135.300812,133.644821 
	C135.265808,116.814880 135.264450,99.984818 135.298996,83.154884 
	C135.300964,82.200317 135.673233,81.246498 136.277710,80.118340 
M164.826874,97.068253 
	C164.543671,95.772568 164.324188,94.459000 163.966400,93.184250 
	C162.282959,87.186066 158.394409,84.414642 152.659119,85.075302 
	C146.809601,85.749123 142.971985,90.081230 142.962570,96.034286 
	C142.955750,100.347618 143.162476,104.673401 142.897018,108.970337 
	C142.689148,112.334991 144.287277,114.241783 146.960907,115.673386 
	C153.311935,119.074051 160.995621,116.474838 163.260574,109.611214 
	C164.472488,105.938622 164.389908,101.838867 164.826874,97.068253 
z"/>
<path fill="#93D503" opacity="1.000000" stroke="none" 
	d="
M264.914062,42.311882 
	C266.860504,39.874508 268.806976,37.437130 271.278290,34.342495 
	C277.855560,45.343784 278.443207,55.058170 273.556458,64.670303 
	C267.887878,75.820274 258.490295,81.469055 245.595306,80.767120 
	C250.594772,66.989334 256.096100,53.799324 264.914062,42.311882 
z"/>
<path fill="#3EAE2C" opacity="1.000000" stroke="none" 
	d="
M264.552277,42.237137 
	C256.096100,53.799324 250.594772,66.989334 245.268219,80.660973 
	C241.987656,80.369148 238.834259,79.750687 235.354156,78.556381 
	C236.384216,71.378326 237.740967,64.776123 239.097717,58.173912 
	C240.697266,54.626900 242.078354,50.959641 243.948700,47.561680 
	C246.607559,42.731178 249.626099,38.098652 252.545776,33.291279 
	C256.994232,36.680172 260.592377,39.421280 264.552277,42.237137 
z"/>
<path fill="#8B8C8F" opacity="1.000000" stroke="none" 
	d="
M48.422867,85.117599 
	C38.981056,84.801048 34.955784,87.758972 33.538933,96.530052 
	C32.997414,99.882362 33.197308,103.546181 33.930584,106.876183 
	C36.007267,116.306992 44.495747,119.749290 52.707336,114.712715 
	C54.733902,113.469719 56.910065,111.420532 58.292423,114.754066 
	C58.739799,115.832901 57.090298,118.609863 55.693642,119.492950 
	C45.079380,126.204178 27.088993,123.931183 25.437820,102.513512 
	C24.724592,93.262077 29.035034,84.484695 36.137775,81.009605 
	C43.835274,77.243515 52.447716,78.563873 58.768261,84.527588 
	C57.612076,87.904236 55.748779,88.994751 52.499668,86.719887 
	C51.439178,85.977379 50.066250,85.681114 48.422867,85.117599 
z"/>
<path fill="#8B8C8F" opacity="1.000000" stroke="none" 
	d="
M188.796143,112.001144 
	C194.165756,117.718277 199.615738,118.440948 205.947632,114.572502 
	C209.438400,112.439835 209.438400,112.439827 211.919678,115.908508 
	C206.597275,123.516006 194.171082,125.176086 186.218002,119.342125 
	C177.214157,112.737381 175.533173,95.389534 182.970459,85.827309 
	C189.509903,77.419441 202.583160,76.647186 211.408966,84.147408 
	C209.507034,88.619942 209.507034,88.619949 205.294846,86.606636 
	C196.235703,82.276611 188.525406,85.938362 186.481339,95.741608 
	C185.336807,101.230721 185.742859,106.649643 188.796143,112.001144 
z"/>
<path fill="#1F874A" opacity="1.000000" stroke="none" 
	d="
M238.812042,58.001511 
	C237.740967,64.776123 236.384216,71.378326 235.017731,78.370247 
	C234.843430,78.743256 234.660858,78.767494 234.516937,78.704033 
	C221.881592,73.131401 219.834900,64.652504 228.292068,52.135921 
	C231.686325,54.024090 235.106339,55.926598 238.812042,58.001511 
z"/>
<path fill="#828386" opacity="1.000000" stroke="none" 
	d="
M92.131592,121.276978 
	C92.405746,121.113968 92.626259,121.272148 92.881317,121.691933 
	C92.592422,121.990990 92.313126,121.872536 92.131592,121.276978 
z"/>
<path fill="#828386" opacity="1.000000" stroke="none" 
	d="
M98.300797,121.874466 
	C98.137558,121.575417 98.329643,121.339287 98.820038,121.080750 
	C98.879562,121.282448 98.725494,121.575462 98.300797,121.874466 
z"/>
<path fill="#808185" opacity="1.000000" stroke="none" 
	d="
M117.126358,121.280930 
	C117.403809,121.116119 117.627502,121.278084 117.883636,121.708138 
	C117.588432,122.010666 117.307274,121.887817 117.126358,121.280930 
z"/>
<path fill="#808185" opacity="1.000000" stroke="none" 
	d="
M123.290527,121.886612 
	C123.124886,121.597504 123.301956,121.364708 123.763557,121.102142 
	C123.828300,121.300560 123.690018,121.590744 123.290527,121.886612 
z"/>
<path fill="#FDFDFD" opacity="1.000000" stroke="none" 
	d="
M164.859192,97.500069 
	C164.389908,101.838867 164.472488,105.938622 163.260574,109.611214 
	C160.995621,116.474838 153.311935,119.074051 146.960907,115.673386 
	C144.287277,114.241783 142.689148,112.334991 142.897018,108.970337 
	C143.162476,104.673401 142.955750,100.347618 142.962570,96.034286 
	C142.971985,90.081230 146.809601,85.749123 152.659119,85.075302 
	C158.394409,84.414642 162.282959,87.186066 163.966400,93.184250 
	C164.324188,94.459000 164.543671,95.772568 164.859192,97.500069 
z"/>
</svg>