<svg width="25" height="24" viewBox="0 0 25 24" fill="currentColor" xmlns="http://www.w3.org/2000/svg">
  <path d="M12.5 1.99707C9.88 1.99707 7.75 4.12707 7.75 6.74707C7.75 9.31707 9.76 11.3971 12.38 11.4871C12.46 11.4771 12.54 11.4771 12.6 11.4871C12.62 11.4871 12.63 11.4871 12.65 11.4871C12.66 11.4871 12.66 11.4871 12.67 11.4871C15.23 11.3971 17.24 9.31707 17.25 6.74707C17.25 4.12707 15.12 1.99707 12.5 1.99707Z"/>
  <path d="M17.58 14.147C14.79 12.287 10.24 12.287 7.42996 14.147C6.15996 14.997 5.45996 16.147 5.45996 17.377C5.45996 18.607 6.15996 19.747 7.41996 20.587C8.81996 21.527 10.66 21.997 12.5 21.997C14.34 21.997 16.18 21.527 17.58 20.587C18.84 19.737 19.54 18.597 19.54 17.357C19.53 16.127 18.84 14.987 17.58 14.147Z"/>
</svg>
