<svg width="30" height="29" viewBox="0 0 30 29" fill="none" xmlns="http://www.w3.org/2000/svg">
<path d="M14.7002 29C18.5458 29 22.234 27.4723 24.9532 24.753C27.6725 22.0338 29.2002 18.3456 29.2002 14.5C29.2002 10.6544 27.6725 6.96623 24.9532 4.24695C22.234 1.52767 18.5458 0 14.7002 0C10.8546 0 7.16642 1.52767 4.44715 4.24695C1.72787 6.96623 0.200195 10.6544 0.200195 14.5C0.200195 18.3456 1.72787 22.0338 4.44715 24.753C7.16642 27.4723 10.8546 29 14.7002 29ZM10.1123 9.91211C10.6447 9.37969 11.5057 9.37969 12.0324 9.91211L14.6945 12.5742L17.3566 9.91211C17.8891 9.37969 18.75 9.37969 19.2768 9.91211C19.8035 10.4445 19.8092 11.3055 19.2768 11.8322L16.6146 14.4943L19.2768 17.1564C19.8092 17.6889 19.8092 18.5498 19.2768 19.0766C18.7443 19.6033 17.8834 19.609 17.3566 19.0766L14.6945 16.4145L12.0324 19.0766C11.5 19.609 10.6391 19.609 10.1123 19.0766C9.58555 18.5441 9.57988 17.6832 10.1123 17.1564L12.7744 14.4943L10.1123 11.8322C9.57988 11.2998 9.57988 10.4389 10.1123 9.91211Z" fill="#E80729"/>
</svg>
