<svg xmlns="http://www.w3.org/2000/svg" width="24" height="24" viewBox="0 0 24 24">
  <!-- 
    Capa 1: El cuerpo sólido de la caja.
    Utiliza fill="currentColor" para heredar el color naranja de tu tema.
    Esta es la forma exterior principal del SVG original.
  -->
  <path 
    fill="currentColor"
    d="M21 16V8a2 2 0 0 0-1-1.73l-7-4a2 2 0 0 0-2 0l-7 4A2 2 0 0 0 3 8v8a2 2 0 0 0 1 1.73l7 4a2 2 0 0 0 2 0l7-4A2 2 0 0 0 21 16z"
  />

  <!-- 
    Capa 2: Las líneas de las costuras de la caja.
    Utilizan un stroke="white" fijo para asegurar el contraste.
    Son las líneas y polilíneas del SVG original.
  -->
  <g 
    fill="none" 
    stroke="white" 
    stroke-width="2" 
    stroke-linecap="round" 
    stroke-linejoin="round"
  >
    <line x1="16.5" y1="9.4" x2="7.5" y2="4.21"></line>
    <polyline points="3.27 6.96 12 12.01 20.73 6.96"></polyline>
    <line x1="12" y1="22.08" x2="12" y2="12"></line>
  </g>
</svg>