<svg width="22" height="23" viewBox="0 0 22 23" fill="none" xmlns="http://www.w3.org/2000/svg">
<path d="M10.9999 2.43359C5.94908 2.43359 1.83325 6.54943 1.83325 11.6003C1.83325 16.6511 5.94908 20.7669 10.9999 20.7669C16.0508 20.7669 20.1666 16.6511 20.1666 11.6003C20.1666 6.54943 16.0508 2.43359 10.9999 2.43359ZM15.3816 9.49193L10.1841 14.6894C10.0558 14.8178 9.88159 14.8911 9.69825 14.8911C9.51492 14.8911 9.34075 14.8178 9.21242 14.6894L6.61825 12.0953C6.35242 11.8294 6.35242 11.3894 6.61825 11.1236C6.88408 10.8578 7.32408 10.8578 7.58992 11.1236L9.69825 13.2319L14.4099 8.52026C14.6758 8.25443 15.1158 8.25443 15.3816 8.52026C15.6474 8.78609 15.6474 9.21693 15.3816 9.49193Z" fill="#34A853"/>
</svg>
